<?xml version="1.0" encoding="UTF-8"?>
<svg id="Layer_1" xmlns="http://www.w3.org/2000/svg" version="1.1" viewBox="0 0 40 40">
  <!-- Generator: Adobe Illustrator 29.7.1, SVG Export Plug-In . SVG Version: 2.1.1 Build 8)  -->
  <defs>
    <style>
      .st0 {
        fill: #231f20;
      }
    </style>
  </defs>
  <path class="st0" d="M20,22.85c1.57,0,2.85-1.28,2.85-2.85,0-.62-.2-1.2-.54-1.66-.52-.71-1.36-1.19-2.31-1.19s-1.79.47-2.31,1.19c-.34.47-.54,1.04-.54,1.66,0,1.58,1.27,2.85,2.84,2.85Z"/>
  <polygon class="st0" points="26.23 16.51 26.23 14.12 26.23 13.77 25.87 13.77 23.48 13.77 23.49 16.52 26.23 16.51"/>
  <path class="st0" d="M24.43,20c0,2.44-1.99,4.43-4.43,4.43s-4.43-1.99-4.43-4.43c0-.59.12-1.15.33-1.66h-2.42v6.63c0,.85.7,1.55,1.55,1.55h9.93c.85,0,1.55-.7,1.55-1.55v-6.63h-2.42c.22.51.33,1.08.33,1.66Z"/>
  <path class="st0" d="M20,3.8C11.05,3.8,3.8,11.05,3.8,20s7.25,16.2,16.2,16.2,16.2-7.25,16.2-16.2S28.95,3.8,20,3.8ZM28.1,18.34v6.63c0,1.73-1.4,3.13-3.13,3.13h-9.93c-1.73,0-3.13-1.4-3.13-3.13v-9.94c0-1.73,1.4-3.13,3.13-3.13h9.93c1.73,0,3.13,1.4,3.13,3.13v3.31Z"/>
</svg>