<?xml version="1.0" encoding="UTF-8"?>
<svg id="Layer_1" xmlns="http://www.w3.org/2000/svg" version="1.1" viewBox="0 0 158.37 56.55">
  <!-- Generator: Adobe Illustrator 29.7.1, SVG Export Plug-In . SVG Version: 2.1.1 Build 8)  -->
  <defs>
    <style>
      .st0 {
        fill: #fff;
      }

      .st1 {
        fill: #a6a6a6;
      }
    </style>
  </defs>
  <path class="st1" d="M142.01,3.3H13.87c-.87,0-1.62.12-2.5.25-.75.12-1.62.37-2.37.75s-1.37.87-2,1.5-1.12,1.25-1.5,2-.62,1.62-.75,2.37c-.12.87-.25,1.75-.25,2.5v31.1c0,.87.12,1.62.25,2.5.12.87.37,1.62.75,2.37.37.87.87,1.5,1.5,2.12s1.25,1.12,2,1.5,1.5.62,2.37.75,1.62.25,2.5.25h130.64c.87,0,1.62-.12,2.5-.25s1.62-.37,2.37-.75,1.37-.87,2-1.5,1.12-1.25,1.5-2c.37-.75.62-1.5.75-2.37s.25-1.62.25-2.5V12.67c0-.87-.12-1.62-.25-2.5s-.37-1.62-.75-2.37c-.75-1.5-2-2.75-3.5-3.5-.75-.37-1.5-.62-2.37-.75-.87-.12-1.62-.25-2.5-.25h-2.5Z"/>
  <path d="M14.99,52.13h-1.12c-.75,0-1.62-.12-2.37-.25-.75-.12-1.37-.37-2.12-.62-.62-.37-1.25-.75-1.75-1.25-.5-.5-1-1.12-1.25-1.75-.37-.62-.5-1.37-.62-2.12-.12-.75-.25-1.5-.25-2.37V12.67c0-.75.12-1.62.25-2.37.12-.62.37-1.37.75-2s.75-1.25,1.25-1.75c.5-.5,1.12-.87,1.75-1.25s1.37-.5,2.12-.62c.75-.12,1.5-.25,2.37-.25h130.64c.75,0,1.5.12,2.37.25.75.12,1.37.37,2.12.62,1.25.62,2.37,1.75,3,3,.37.62.5,1.37.62,2,.12.75.25,1.62.25,2.37v31.1c0,.75-.12,1.5-.25,2.37-.12.75-.37,1.37-.62,2.12-.37.62-.75,1.25-1.25,1.75s-1.12,1-1.75,1.25c-.62.37-1.37.62-2.12.62-.75.12-1.5.25-2.37.25,0,0-129.64,0-129.64,0Z"/>
  <path class="st0" d="M35.47,28.65c0-2.12,1.12-4.12,3-5.25-1.12-1.62-3-2.62-5-2.75-2.12-.25-4.12,1.25-5.25,1.25s-2.75-1.25-4.5-1.25c-2.37.12-4.5,1.37-5.62,3.37-2.37,4.12-.62,10.37,1.75,13.74,1.12,1.62,2.5,3.5,4.25,3.5,1.75-.12,2.37-1.12,4.5-1.12s2.62,1.12,4.5,1.12,3-1.62,4.12-3.37c.87-1.12,1.5-2.5,1.87-3.87-2.25-.75-3.62-3-3.62-5.37ZM31.98,18.54c1-1.25,1.5-2.75,1.37-4.37-1.5.12-3,.87-4,2.12-1,1.12-1.5,2.62-1.37,4.25,1.62,0,3-.75,4-2ZM57.33,37.14h-5.87l-1.37,4.25h-2.5l5.62-15.49h2.5l5.62,15.49h-2.5l-1.5-4.25ZM52.08,35.27h4.75l-2.37-6.87h-.12l-2.25,6.87ZM73.44,35.77c0,3.5-1.87,5.74-4.75,5.74-1.5.12-2.87-.75-3.5-2v5.62h-2.37v-14.99h2.25v1.87c.75-1.25,2.12-2,3.62-2,2.75-.12,4.75,2.25,4.75,5.74ZM70.94,35.77c0-2.25-1.12-3.75-3-3.75-1.75,0-3,1.5-3,3.75s1.25,3.75,3,3.75c1.87,0,3-1.5,3-3.75ZM85.8,35.77c0,3.5-1.87,5.74-4.75,5.74-1.5.12-2.87-.75-3.5-2v5.62h-2.37v-14.99h2.25v1.87c.75-1.25,2.12-2,3.62-2,2.87-.12,4.75,2.25,4.75,5.74ZM83.43,35.77c0-2.25-1.12-3.75-3-3.75-1.75,0-3,1.5-3,3.75s1.25,3.75,3,3.75c1.87,0,3-1.5,3-3.75ZM94.05,37.02c.12,1.5,1.62,2.5,3.75,2.5,2,0,3.37-1,3.37-2.37,0-1.25-.87-1.87-2.87-2.37l-2-.5c-2.87-.62-4.12-2-4.12-4.12,0-2.62,2.37-4.5,5.62-4.5s5.5,1.87,5.62,4.5h-2.37c-.12-1.5-1.37-2.5-3.25-2.5s-3.12,1-3.12,2.37c0,1.12.87,1.75,2.87,2.25l1.75.37c3.12.75,4.5,2,4.5,4.25,0,2.87-2.25,4.75-5.99,4.75-3.5,0-5.74-1.75-5.87-4.62h2.12ZM108.53,27.4v2.62h2.12v1.87h-2.12v6.24c0,1,.37,1.37,1.37,1.37h.75v1.87c-.37.12-.87.12-1.25.12-2.25,0-3.12-.87-3.12-3v-6.49h-1.62v-1.87h1.62v-2.62h2.25v-.12ZM112.03,35.77c0-3.5,2.12-5.74,5.37-5.74s5.37,2.25,5.37,5.74-2.12,5.74-5.37,5.74-5.37-2.25-5.37-5.74ZM120.4,35.77c0-2.5-1.12-3.87-3-3.87s-3,1.37-3,3.87,1.12,3.87,3,3.87,3-1.5,3-3.87ZM124.65,30.03h2.25v2c.25-1.25,1.5-2.12,2.75-2,.25,0,.5,0,.75.12v2.12c-.37-.12-.75-.12-1-.12-1.25,0-2.37,1-2.37,2.25v7.12h-2.37s0-11.49,0-11.49ZM141.13,38.02c-.25,2-2.25,3.5-4.87,3.5-3.25,0-5.37-2.25-5.37-5.74s2-5.87,5.25-5.87,5.12,2.12,5.12,5.62v.75h-7.99v.12c-.12,1.62,1,3,2.62,3.25h.37c1.12.12,2.25-.5,2.62-1.62h2.25ZM133.26,34.65h5.62c.12-1.5-1.12-2.75-2.62-2.87h-.25c-1.5,0-2.75,1.25-2.75,2.87Z"/>
  <path class="st0" d="M51.71,14.16c1.87-.12,3.37,1.25,3.5,3v.62c0,2.37-1.25,3.75-3.5,3.75h-2.75v-7.49l2.75.12ZM50.21,20.66h1.37c1.25.12,2.37-.87,2.5-2.25v-.5c.12-1.25-.75-2.5-2-2.62h-1.87v5.37ZM56.58,18.79c-.12-1.5,1-2.75,2.37-2.87,1.5-.12,2.75,1,2.87,2.37v.5c.12,1.5-.87,2.75-2.37,2.87s-2.75-.87-2.87-2.37v-.5ZM60.7,18.79c0-1.25-.5-1.87-1.5-1.87s-1.5.75-1.5,1.87c0,1.25.5,2,1.5,2s1.5-.75,1.5-2ZM68.94,21.66h-1.12l-1.12-4.12h-.12l-1.12,4.12h-1.12l-1.5-5.62h1.12l1,4.25h.12l1.12-4.25h1.12l1.12,4.25h.12l1-4.25h1.12l-1.75,5.62ZM71.82,16.04h1.12v.87h.12c.25-.62,1-1,1.62-1,1-.12,1.87.62,2,1.75v4h-1.12v-3.37c0-.87-.37-1.37-1.25-1.37-.75,0-1.37.5-1.37,1.25v3.5h-1.12v-5.62ZM78.31,13.79h1.12v7.87h-1.12v-7.87ZM80.93,18.79c-.12-1.5.87-2.75,2.37-2.87s2.75.87,2.87,2.37v.5c.12,1.5-.87,2.75-2.37,2.87-1.5.12-2.75-.87-2.87-2.37v-.5ZM85.18,18.79c0-1.25-.5-1.87-1.5-1.87s-1.5.75-1.5,1.87c0,1.25.5,2,1.5,2,.87,0,1.5-.75,1.5-2ZM87.43,20.03c0-1,.75-1.62,2.12-1.62l1.5-.12v-.5c0-.62-.37-.87-1.12-.87-.62,0-1,.25-1.12.62h-1.12c.12-1,1-1.62,2.25-1.62,1.37,0,2.25.75,2.25,1.87v3.87h-1.12v-.75h-.12c-.37.62-1,.87-1.75.87-.87.12-1.75-.62-1.87-1.5q.12-.12.12-.25ZM91.05,19.53v-.5l-1.37.12c-.75,0-1.12.37-1.12.75,0,.5.5.75,1,.75.75.25,1.37-.25,1.5-1.12q0,.12,0,0ZM93.55,18.79c0-1.75.87-2.87,2.37-2.87.75,0,1.37.37,1.75,1h.12v-3.12h1.12v7.87h-1.12v-.87h-.12c-.37.62-1,1-1.75,1-1.37,0-2.37-1.12-2.37-3ZM94.8,18.79c0,1.25.5,1.87,1.5,1.87s1.5-.75,1.5-1.87-.62-1.87-1.5-1.87c-1,0-1.5.75-1.5,1.87ZM103.41,18.79c-.12-1.5.87-2.75,2.37-2.87,1.5-.12,2.75.87,2.87,2.37v.5c.12,1.5-.87,2.75-2.37,2.87-1.5.12-2.75-.87-2.87-2.37v-.5ZM107.66,18.79c0-1.25-.5-1.87-1.5-1.87s-1.5.75-1.5,1.87c0,1.25.5,2,1.5,2,.87,0,1.5-.75,1.5-2ZM110.28,16.04h1.12v.87h.12c.25-.62,1-1,1.62-1,1-.12,1.87.62,2,1.75v4h-1.12v-3.37c0-.87-.37-1.37-1.25-1.37-.75,0-1.37.5-1.37,1.25v3.5h-1.12v-5.62ZM121.27,14.66v1.37h1.25v1h-1.25v2.87c0,.62.25.87.75.87h.37v.87h-.62c-1.25,0-1.75-.37-1.75-1.5v-3.12h-.87v-.87h.87v-1.5h1.25ZM124.02,13.79h1.12v3.12h.12c.25-.62,1-1.12,1.75-1,1,0,1.87.75,2,1.75v4h-1.12v-3.37c0-.87-.37-1.37-1.25-1.37-.75,0-1.37.5-1.37,1.25v3.5h-1.12v-7.87h-.12ZM135.39,20.16c-.25,1-1.37,1.75-2.37,1.62-1.37,0-2.62-1.12-2.62-2.5v-.37c-.25-1.37.75-2.75,2.25-2.87h.37c1.62,0,2.5,1.12,2.5,2.87v.37h-4v.12c-.12.87.5,1.5,1.37,1.62h.12c.5.12,1.12-.25,1.37-.62h1v-.25ZM131.39,18.29h2.87c0-.75-.5-1.37-1.25-1.5h-.12c-.75.12-1.5.75-1.5,1.5Z"/>
</svg>